<mxfile host="app.diagrams.net" modified="2023-06-27T08:21:29.481Z" agent="Mozilla/5.0 (Windows NT 10.0; Win64; x64) AppleWebKit/537.36 (KHTML, like Gecko) Chrome/84.0.4147.125 Safari/537.36" etag="GlvzKm9A0-60tCJdeOu7" version="21.5.0" type="github">
  <diagram name="第 1 页" id="BSMTkPgwm_pN8BPHQBGb">
    <mxGraphModel dx="989" dy="515" grid="1" gridSize="10" guides="1" tooltips="1" connect="1" arrows="1" fold="1" page="1" pageScale="1" pageWidth="827" pageHeight="1169" math="0" shadow="0">
      <root>
        <mxCell id="0" />
        <mxCell id="1" parent="0" />
        <mxCell id="CUPOg7wT-_XjvYd8lmtT-4" value="" style="rounded=0;whiteSpace=wrap;html=1;" parent="1" vertex="1">
          <mxGeometry x="275" y="50" width="340" height="320" as="geometry" />
        </mxCell>
        <mxCell id="w6wRXMn8FTydS8Je_6u2-3" value="" style="rounded=1;whiteSpace=wrap;html=1;dashed=1;arcSize=7;fillColor=#f5f5f5;fontColor=#333333;strokeColor=#666666;" vertex="1" parent="1">
          <mxGeometry x="300" y="101" width="290" height="90" as="geometry" />
        </mxCell>
        <mxCell id="CUPOg7wT-_XjvYd8lmtT-1" value="OpenGL 上下文" style="rounded=0;whiteSpace=wrap;html=1;" parent="1" vertex="1">
          <mxGeometry x="310" y="120.5" width="120" height="50" as="geometry" />
        </mxCell>
        <mxCell id="CUPOg7wT-_XjvYd8lmtT-2" value="用于显示的窗口" style="rounded=0;whiteSpace=wrap;html=1;" parent="1" vertex="1">
          <mxGeometry x="460" y="120.5" width="120" height="50" as="geometry" />
        </mxCell>
        <mxCell id="CUPOg7wT-_XjvYd8lmtT-5" value="第一步" style="text;html=1;strokeColor=none;fillColor=none;align=center;verticalAlign=middle;whiteSpace=wrap;rounded=0;" parent="1" vertex="1">
          <mxGeometry x="290" y="70" width="60" height="30" as="geometry" />
        </mxCell>
        <mxCell id="w6wRXMn8FTydS8Je_6u2-1" value="这两部分GLFW已经帮我们做了" style="text;html=1;strokeColor=#6c8ebf;fillColor=#dae8fc;align=left;verticalAlign=middle;whiteSpace=wrap;rounded=0;" vertex="1" parent="1">
          <mxGeometry x="650" y="70" width="120" height="30" as="geometry" />
        </mxCell>
        <mxCell id="w6wRXMn8FTydS8Je_6u2-6" value="" style="curved=1;endArrow=classic;html=1;rounded=0;exitX=1;exitY=0.5;exitDx=0;exitDy=0;entryX=0;entryY=0.5;entryDx=0;entryDy=0;" edge="1" parent="1" source="w6wRXMn8FTydS8Je_6u2-3" target="w6wRXMn8FTydS8Je_6u2-1">
          <mxGeometry width="50" height="50" relative="1" as="geometry">
            <mxPoint x="680" y="190" as="sourcePoint" />
            <mxPoint x="800" y="160" as="targetPoint" />
            <Array as="points">
              <mxPoint x="600" y="110" />
              <mxPoint x="630" y="120" />
            </Array>
          </mxGeometry>
        </mxCell>
      </root>
    </mxGraphModel>
  </diagram>
</mxfile>
